<svg id="visual" viewBox="0 0 1980 5890" width="1980" height="5890" xmlns="http://www.w3.org/2000/svg" xmlns:xlink="http://www.w3.org/1999/xlink" version="1.1"><path d="M1484 5890L1460.8 5693.7C1437.7 5497.3 1391.3 5104.7 1437.5 4712C1483.7 4319.3 1622.3 3926.7 1599.3 3534C1576.3 3141.3 1391.7 2748.7 1322.3 2356C1253 1963.3 1299 1570.7 1388 1178C1477 785.3 1609 392.7 1675 196.3L1741 0L1980 0L1980 196.3C1980 392.7 1980 785.3 1980 1178C1980 1570.7 1980 1963.3 1980 2356C1980 2748.7 1980 3141.3 1980 3534C1980 3926.7 1980 4319.3 1980 4712C1980 5104.7 1980 5497.3 1980 5693.7L1980 5890Z" fill="#ba5b06"></path><path d="M910 5890L900 5693.7C890 5497.3 870 5104.7 886.5 4712C903 4319.3 956 3926.7 896.7 3534C837.3 3141.3 665.7 2748.7 606.2 2356C546.7 1963.3 599.3 1570.7 592.7 1178C586 785.3 520 392.7 487 196.3L454 0L1742 0L1676 196.3C1610 392.7 1478 785.3 1389 1178C1300 1570.7 1254 1963.3 1323.3 2356C1392.7 2748.7 1577.3 3141.3 1600.3 3534C1623.3 3926.7 1484.7 4319.3 1438.5 4712C1392.3 5104.7 1438.7 5497.3 1461.8 5693.7L1485 5890Z" fill="#ff8821"></path><path d="M850 5890L784 5693.7C718 5497.3 586 5104.7 602.5 4712C619 4319.3 784 3926.7 751 3534C718 3141.3 487 2748.7 404.5 2356C322 1963.3 388 1570.7 411.2 1178C434.3 785.3 414.7 392.7 404.8 196.3L395 0L455 0L488 196.3C521 392.7 587 785.3 593.7 1178C600.3 1570.7 547.7 1963.3 607.2 2356C666.7 2748.7 838.3 3141.3 897.7 3534C957 3926.7 904 4319.3 887.5 4712C871 5104.7 891 5497.3 901 5693.7L911 5890Z" fill="#ffa859"></path><path d="M573 5890L540 5693.7C507 5497.3 441 5104.7 454.2 4712C467.3 4319.3 559.7 3926.7 520.2 3534C480.7 3141.3 309.3 2748.7 246.7 2356C184 1963.3 230 1570.7 256.3 1178C282.7 785.3 289.3 392.7 292.7 196.3L296 0L396 0L405.8 196.3C415.7 392.7 435.3 785.3 412.2 1178C389 1570.7 323 1963.3 405.5 2356C488 2748.7 719 3141.3 752 3534C785 3926.7 620 4319.3 603.5 4712C587 5104.7 719 5497.3 785 5693.7L851 5890Z" fill="#ff8821"></path><path d="M0 5890L0 5693.7C0 5497.3 0 5104.7 0 4712C0 4319.3 0 3926.7 0 3534C0 3141.3 0 2748.7 0 2356C0 1963.3 0 1570.7 0 1178C0 785.3 0 392.7 0 196.3L0 0L297 0L293.7 196.3C290.3 392.7 283.7 785.3 257.3 1178C231 1570.7 185 1963.3 247.7 2356C310.3 2748.7 481.7 3141.3 521.2 3534C560.7 3926.7 468.3 4319.3 455.2 4712C442 5104.7 508 5497.3 541 5693.7L574 5890Z" fill="#ba5b06"></path></svg>